<?xml version="1.0" encoding="UTF-8" standalone="no"?>
<!-- Created with Inkscape (http://www.inkscape.org/) -->

<svg
   xmlns:dc="http://purl.org/dc/elements/1.1/"
   xmlns:cc="http://creativecommons.org/ns#"
   xmlns:rdf="http://www.w3.org/1999/02/22-rdf-syntax-ns#"
   xmlns:svg="http://www.w3.org/2000/svg"
   xmlns="http://www.w3.org/2000/svg"
   xmlns:sodipodi="http://sodipodi.sourceforge.net/DTD/sodipodi-0.dtd"
   xmlns:inkscape="http://www.inkscape.org/namespaces/inkscape"
   width="210mm"
   height="297mm"
   viewBox="0 0 210 297"
   version="1.1"
   id="svg8"
   inkscape:version="0.92.5 (2060ec1f9f, 2020-04-08)"
   sodipodi:docname="Rayitas.svg">
  <defs
     id="defs2" />
  <sodipodi:namedview
     id="base"
     pagecolor="#ffffff"
     bordercolor="#666666"
     borderopacity="1.0"
     inkscape:pageopacity="0.0"
     inkscape:pageshadow="2"
     inkscape:zoom="0.35"
     inkscape:cx="-208.57143"
     inkscape:cy="560"
     inkscape:document-units="mm"
     inkscape:current-layer="layer1"
     showgrid="false"
     inkscape:window-width="1366"
     inkscape:window-height="715"
     inkscape:window-x="0"
     inkscape:window-y="0"
     inkscape:window-maximized="1" />
  <metadata
     id="metadata5">
    <rdf:RDF>
      <cc:Work
         rdf:about="">
        <dc:format>image/svg+xml</dc:format>
        <dc:type
           rdf:resource="http://purl.org/dc/dcmitype/StillImage" />
        <dc:title></dc:title>
      </cc:Work>
    </rdf:RDF>
  </metadata>
  <g
     inkscape:label="Capa 1"
     inkscape:groupmode="layer"
     id="layer1">
    <g
       id="g21"
       transform="translate(1.5119052,9.827381)">
      <path
         style="fill:#fd9d9d;stroke-width:0.14853801"
         d="m 158.01793,146.05131 c -0.6383,-0.2835 -0.40453,-0.008 -11.1218,-13.12752 -1.54202,-1.88773 -3.37592,-4.25558 -4.07533,-5.26189 -1.35551,-1.95033 -1.93516,-2.55305 -2.45316,-2.55082 -1.08815,0.005 -3.41573,2.0734 -7.77939,6.91413 -1.17992,1.30891 -10.23257,10.10125 -11.09717,10.77806 -0.64746,0.50683 -1.93991,0.56464 -2.84357,0.12718 -0.62549,-0.30279 -1.1206,-0.9077 -5.0957,-6.22574 -2.42159,-3.23969 -4.96049,-6.64316 -5.64199,-7.56325 -0.68151,-0.92009 -1.68498,-2.1368 -2.22993,-2.7038 -1.18745,-1.23547 -1.45655,-1.28518 -2.49629,-0.46113 -0.39539,0.31337 -4.287311,4.1735 -8.648713,8.57807 -5.56054,5.61557 -8.00746,8.18583 -8.189667,8.60246 -0.62356,1.42582 -2.311699,2.20873 -3.663531,1.69908 -0.598837,-0.22578 -0.910806,-0.54721 -6.041039,-6.22429 -8.46039,-9.36221 -9.253716,-10.20291 -9.942856,-10.53651 -0.837394,-0.40538 -1.044143,-0.39457 -2.110279,0.11036 -1.859491,0.88066 -3.548217,2.50376 -7.210542,6.93031 -1.823067,2.20349 -5.932661,6.59914 -8.631384,9.2322 -1.260198,1.22954 -1.462309,1.36999 -2.111382,1.46733 -1.459788,0.2189 -1.46495,0.215 -6.924236,-5.2557 -2.743291,-2.74902 -5.695539,-5.74389 -6.560555,-6.65528 -2.583343,-2.72181 -3.921865,-3.52793 -4.859454,-2.92657 -0.392731,0.2519 -2.694517,2.67936 -5.971653,6.2977 -0.699993,0.77288 -2.293247,2.60839 -3.540566,4.07891 -1.279655,1.50866 -2.490029,2.79393 -2.777733,2.94964 -0.692672,0.37487 -1.446172,0.223 -2.090529,-0.42136 -0.694618,-0.6946 -0.686308,-1.43573 0.02657,-2.36965 0.285936,-0.37459 0.519883,-0.72253 0.519883,-0.7732 0,-0.0507 -0.233947,-0.35106 -0.519883,-0.66756 -0.515292,-0.57037 -0.648314,-1.10684 -0.421202,-1.69868 0.05427,-0.14144 1.602342,-2.06862 3.440151,-4.28262 1.837808,-2.214 4.496753,-5.47029 5.908765,-7.23619 3.324794,-4.15808 3.920388,-4.68209 5.760434,-5.06804 0.653915,-0.13716 0.972404,-0.12217 1.813226,0.0853 1.788375,0.44132 2.301683,0.83542 7.963304,6.11392 1.489633,1.38883 3.813424,3.55185 5.16398,4.80671 l 2.455554,2.28157 2.228071,-2.30636 c 1.225438,-1.26849 4.523966,-4.68435 7.330061,-7.59079 6.452308,-6.68305 7.264733,-7.27141 10.060085,-7.28562 1.119274,-0.006 1.285209,0.0364 2.480905,0.62887 1.410292,0.69882 2.56467,1.73844 5.150142,4.63814 2.234119,2.50564 10.587058,11.43742 10.696198,11.43742 0.05484,0 1.565858,-1.55047 3.357824,-3.44548 1.791967,-1.89502 4.188399,-4.41831 5.325407,-5.60731 1.137008,-1.18901 2.662776,-2.86367 3.390596,-3.72147 4.081308,-4.81023 6.332778,-6.3754 8.928248,-6.20673 1.99873,0.1299 3.43303,1.14126 5.70512,4.02283 0.72163,0.91521 3.16705,4.01825 5.43427,6.89566 2.26722,2.87741 4.19021,5.27367 4.2733,5.32503 0.0831,0.0514 1.39999,-1.13504 2.92643,-2.63643 7.537,-7.41335 11.83195,-11.46263 12.89215,-12.15474 2.51945,-1.64471 4.33867,-1.78932 6.54308,-0.52012 1.20408,0.69326 3.24986,2.93039 5.23578,5.7255 1.77236,2.49451 10.33327,13.06595 10.58102,13.06595 0.1396,0 0.18885,-0.0786 1.53493,-2.45087 3.0689,-5.40836 5.35434,-8.52336 9.80829,-13.36842 2.07392,-2.25604 3.35747,-3.72475 4.43888,-5.07925 0.97608,-1.22255 1.57825,-1.5402 2.32973,-1.22893 0.91929,0.38079 6.23354,6.13799 12.39944,13.43296 1.793,2.12133 3.71213,4.39034 4.26473,5.04225 0.59298,0.69954 1.06709,1.41685 1.15689,1.75035 0.18371,0.68222 -0.007,1.52316 -0.48186,2.1271 l -0.32448,0.41251 0.32499,0.56467 c 0.37874,0.65809 0.43144,1.72848 0.11485,2.33279 -0.2868,0.54745 -1.11169,1.31471 -1.61913,1.50603 -0.58593,0.2209 -1.52824,0.19621 -2.00297,-0.0525 -0.51602,-0.27034 -1.10818,-0.91157 -2.20643,-2.38928 -0.48575,-0.65357 -2.52079,-3.36067 -4.52233,-6.01579 -2.00153,-2.65512 -4.29218,-5.77999 -5.09034,-6.94415 -0.79814,-1.16417 -1.53007,-2.11355 -1.62652,-2.10973 -0.0964,0.004 -3.14984,3.77853 -6.7853,8.38827 l -6.60995,8.38134 -1.23484,2.63096 c -1.37919,2.93848 -1.64639,3.37501 -2.26014,3.69239 -0.4652,0.24058 -1.67641,0.27989 -2.14946,0.0698 z"
         id="path35"
         inkscape:connector-curvature="0" />
      <path
         style="fill:#9f9f9f;stroke-width:0.14853801"
         d="m 158.38927,145.88047 c -0.28593,-0.0821 -0.64471,-0.26059 -0.79727,-0.39659 -0.25219,-0.22481 -3.68168,-4.3766 -10.6131,-12.84832 -1.4148,-1.7292 -3.05227,-3.84584 -3.63882,-4.70365 -1.28514,-1.87947 -2.43785,-3.11929 -2.90012,-3.11929 -0.54523,0 -1.66397,0.6552 -2.84601,1.6668 -1.03211,0.88328 -2.15856,2.05221 -5.58392,5.79449 -1.12794,1.2323 -7.94938,7.85829 -10.21801,9.92524 -0.71934,0.65538 -0.73424,0.66083 -1.80869,0.66083 -0.85276,0 -1.17266,-0.0643 -1.50276,-0.30201 -0.23065,-0.16611 -2.95937,-3.68661 -6.06381,-7.82335 -5.8532,-7.7995 -7.15298,-9.38671 -7.82279,-9.55271 -0.24758,-0.0614 -0.60928,-0.002 -0.9655,0.15751 -0.38517,0.17285 -3.25326,2.95465 -8.857498,8.59102 -6.714606,6.75309 -8.359777,8.48481 -8.66659,9.12254 -0.533608,1.10913 -1.289012,1.58946 -2.499686,1.58946 -0.611403,0 -1.036973,-0.0841 -1.301043,-0.25713 -0.215837,-0.14143 -3.084466,-3.24958 -6.374729,-6.90702 -3.290261,-3.65744 -6.653358,-7.32993 -7.473547,-8.1611 -2.086657,-2.1146 -2.60142,-2.21329 -4.793021,-0.9189 -1.148212,0.67814 -3.909408,3.44456 -6.131975,6.14356 -3.080494,3.74085 -9.545391,10.52468 -10.354178,10.86498 -0.618261,0.26014 -1.413312,0.25587 -2.014805,-0.0108 -0.51938,-0.23027 -8.433203,-8.01265 -11.365819,-11.17703 -2.780269,-3 -4.337211,-4.04412 -5.38392,-3.61055 -0.583592,0.24173 -5.078742,5.06834 -9.157166,9.8324 -1.658494,1.9373 -3.144883,3.59164 -3.303085,3.67631 -1.062271,0.56851 -2.641748,-0.64128 -2.234771,-1.71171 0.08473,-0.22285 0.356272,-0.6605 0.603433,-0.97257 l 0.449382,-0.56739 -0.676642,-0.64834 c -0.682648,-0.65409 -0.838262,-1.14502 -0.577962,-1.82335 0.05427,-0.14144 1.602342,-2.06862 3.440151,-4.28262 1.837808,-2.214 4.496753,-5.47029 5.908765,-7.23619 3.324794,-4.15808 3.920388,-4.68209 5.760434,-5.06804 0.653915,-0.13716 0.972404,-0.12217 1.813226,0.0853 1.788375,0.44132 2.301683,0.83542 7.963304,6.11392 1.489633,1.38883 3.813424,3.55185 5.16398,4.80671 l 2.455554,2.28157 2.228071,-2.30636 c 1.225438,-1.26849 4.523966,-4.68435 7.330061,-7.59079 6.452308,-6.68304 7.264733,-7.27141 10.060085,-7.28562 1.119274,-0.006 1.285209,0.0364 2.480905,0.62887 1.410292,0.69882 2.56467,1.73844 5.150142,4.63814 2.234119,2.50564 10.587058,11.43742 10.696198,11.43742 0.05484,0 1.565858,-1.55047 3.357824,-3.44548 1.791967,-1.89502 4.188399,-4.41831 5.325407,-5.60731 1.137008,-1.18901 2.662776,-2.86367 3.390596,-3.72147 4.081309,-4.81023 6.332779,-6.3754 8.928249,-6.20673 1.99873,0.1299 3.43303,1.14126 5.70512,4.02283 0.72163,0.91521 3.16705,4.01826 5.43427,6.89566 2.26722,2.87741 4.19021,5.27367 4.2733,5.32503 0.0831,0.0513 1.39999,-1.13504 2.92643,-2.63643 7.537,-7.41335 11.83195,-11.46263 12.89215,-12.15474 2.51945,-1.64471 4.33867,-1.78932 6.54308,-0.52012 1.20408,0.69326 3.24986,2.93039 5.23578,5.7255 1.77236,2.49451 10.33327,13.06595 10.58102,13.06595 0.1396,0 0.18885,-0.0786 1.53493,-2.45087 3.0689,-5.40836 5.35434,-8.52336 9.80829,-13.36842 2.07392,-2.25604 3.35747,-3.72475 4.43888,-5.07925 0.97608,-1.22255 1.57825,-1.5402 2.32973,-1.22893 0.91929,0.38079 6.23354,6.13799 12.39944,13.43297 1.793,2.12132 3.71213,4.39033 4.26473,5.04224 0.59298,0.69954 1.06709,1.41685 1.15689,1.75035 0.2032,0.75463 -0.049,1.66888 -0.61714,2.23701 l -0.43669,0.43669 0.31257,0.50576 c 0.74448,1.20461 0.11795,2.94961 -1.24437,3.46578 -0.63834,0.24186 -1.61064,0.18826 -2.11008,-0.11632 -0.47105,-0.28725 -9.78794,-12.57435 -11.87153,-15.65613 -0.74141,-1.09661 -1.27505,-1.74514 -1.43595,-1.74514 -0.16109,0 -2.72575,3.12442 -6.91542,8.42479 -4.99,6.31286 -6.79657,8.70525 -7.20661,9.54357 -0.30097,0.61532 -0.94656,1.9543 -1.43464,2.97549 -0.92526,1.9359 -1.20633,2.24856 -2.17721,2.42184 -0.24509,0.0437 -0.67956,0.0123 -0.9655,-0.0698 z"
         id="path33"
         inkscape:connector-curvature="0" />
      <path
         style="fill:#fc6565;stroke-width:0.14853801"
         d="m 158.38927,145.88047 c -0.28593,-0.0821 -0.64471,-0.26059 -0.79727,-0.39659 -0.25219,-0.22481 -3.68168,-4.3766 -10.6131,-12.84832 -1.4148,-1.7292 -3.05227,-3.84584 -3.63882,-4.70365 -1.28514,-1.87947 -2.43785,-3.11929 -2.90012,-3.11929 -0.54523,0 -1.66397,0.6552 -2.84601,1.6668 -1.03211,0.88328 -2.15856,2.05221 -5.58392,5.79449 -1.12794,1.2323 -7.94938,7.85829 -10.21801,9.92524 -0.71934,0.65538 -0.73424,0.66083 -1.80869,0.66083 -0.85276,0 -1.17266,-0.0643 -1.50276,-0.30201 -0.23065,-0.16611 -2.95937,-3.68661 -6.06381,-7.82335 -5.8532,-7.7995 -7.15298,-9.38671 -7.82279,-9.55271 -0.24758,-0.0614 -0.60928,-0.002 -0.9655,0.15751 -0.38517,0.17285 -3.25326,2.95465 -8.857498,8.59102 -6.714606,6.75309 -8.359777,8.48481 -8.66659,9.12254 -0.533608,1.10913 -1.289012,1.58946 -2.499686,1.58946 -0.611403,0 -1.036973,-0.0841 -1.301043,-0.25713 -0.215837,-0.14143 -3.084466,-3.24958 -6.374729,-6.90702 -3.290261,-3.65744 -6.653358,-7.32993 -7.473547,-8.1611 -2.086657,-2.1146 -2.60142,-2.21329 -4.793021,-0.9189 -1.148212,0.67814 -3.909408,3.44456 -6.131975,6.14356 -3.080494,3.74085 -9.545391,10.52468 -10.354178,10.86498 -0.618261,0.26014 -1.413312,0.25587 -2.014805,-0.0108 -0.51938,-0.23027 -8.433203,-8.01265 -11.365819,-11.17703 -2.780269,-3 -4.337211,-4.04412 -5.38392,-3.61055 -0.583592,0.24173 -5.078742,5.06834 -9.157166,9.8324 -1.658494,1.9373 -3.144883,3.59164 -3.303085,3.67631 -1.062271,0.56851 -2.641748,-0.64128 -2.234771,-1.71171 0.08473,-0.22285 0.352572,-0.65583 0.595211,-0.96219 0.532003,-0.67171 0.553489,-0.93528 0.09334,-1.14494 -0.343391,-0.15643 -0.84048,-0.99238 -0.84048,-1.41341 0,-0.34713 0.527272,-1.04082 3.593206,-4.72728 1.590786,-1.91275 4.164336,-5.06357 5.719,-7.00182 1.554665,-1.93826 3.151756,-3.79274 3.549092,-4.12108 1.83122,-1.51323 4.203987,-1.42242 6.472715,0.24772 0.507538,0.37363 1.69642,1.42222 2.64196,2.3302 1.484637,1.42567 7.549357,7.04543 9.690075,8.97913 0.392145,0.35422 0.778577,0.62159 0.858738,0.59415 0.204196,-0.0699 12.927848,-13.22725 12.927848,-13.36852 0,-0.0634 0.61829,-0.65564 1.373977,-1.31604 1.875309,-1.63885 3.135334,-2.25704 4.775931,-2.34315 1.602049,-0.0841 2.547148,0.1931 3.901602,1.14429 0.577514,0.40557 1.651232,1.39351 2.386039,2.19541 8.914117,9.72808 12.257656,13.26678 12.535107,13.26678 0.136417,0 0.467182,-0.25066 0.735032,-0.55702 0.267849,-0.30636 2.557423,-2.72938 5.087942,-5.3845 2.530518,-2.65512 5.06717,-5.36222 5.637005,-6.01579 3.042758,-3.48987 3.844119,-4.34107 4.860933,-5.16328 0.61272,-0.49546 1.54851,-1.10598 2.07953,-1.35671 0.83902,-0.39617 1.13089,-0.45624 2.22807,-0.45859 1.0903,-0.002 1.38008,0.055 2.12374,0.42016 1.13797,0.55878 2.35514,1.70769 3.94191,3.72083 0.71499,0.90711 3.15613,4.00547 5.42474,6.88525 2.26862,2.87978 4.21529,5.23597 4.32593,5.23597 0.11064,0 1.69594,-1.45382 3.52289,-3.2307 7.95111,-7.73322 11.38698,-11.00011 12.04591,-11.45346 0.38784,-0.26684 1.15498,-0.69825 1.70476,-0.95869 0.87986,-0.4168 1.15084,-0.47353 2.26217,-0.47353 1.1523,0 1.3469,0.0446 2.22807,0.51061 1.47473,0.77992 3.5663,2.98644 5.76472,6.08154 2.06655,2.90945 10.39663,13.12283 10.63908,13.0444 0.087,-0.0282 0.70289,-0.99866 1.36863,-2.1567 2.40575,-4.18471 4.73417,-7.66417 6.66546,-9.96047 0.59246,-0.70443 2.20457,-2.51736 3.58249,-4.02873 1.37789,-1.51138 3.0891,-3.45905 3.80264,-4.32816 0.71355,-0.86911 1.4039,-1.62108 1.53412,-1.67105 0.13021,-0.05 0.44933,-0.0909 0.70915,-0.0909 0.41225,0 0.75765,0.28842 2.71272,2.2652 1.23218,1.24587 2.87094,2.96705 3.64171,3.82486 2.66729,2.96852 11.2849,13.13731 11.54473,13.62277 0.21875,0.40876 0.22116,1.45103 0.004,1.87208 -0.0919,0.17844 -0.30814,0.47916 -0.48052,0.66826 l -0.31343,0.34381 0.34437,0.59835 c 0.76027,1.32098 0.18277,3.00294 -1.21257,3.53162 -0.63834,0.24186 -1.61064,0.18826 -2.11009,-0.11632 -0.47104,-0.28725 -9.78794,-12.57435 -11.87153,-15.65613 -0.74141,-1.09661 -1.27505,-1.74514 -1.43594,-1.74514 -0.16109,0 -2.72575,3.12442 -6.91543,8.42479 -4.99,6.31286 -6.79656,8.70525 -7.2066,9.54357 -0.30097,0.61532 -0.94656,1.9543 -1.43464,2.97549 -0.92526,1.9359 -1.20634,2.24856 -2.17721,2.42184 -0.24509,0.0437 -0.67957,0.0123 -0.9655,-0.0698 z"
         id="path31"
         inkscape:connector-curvature="0" />
      <path
         style="fill:#a44848;stroke-width:0.14853801"
         d="m 14.438328,140.33438 c -0.382094,-0.20765 -0.873623,-1.02319 -0.873623,-1.44951 0,-0.34713 0.527272,-1.04082 3.593206,-4.72728 1.590786,-1.91275 4.164336,-5.06357 5.719,-7.00182 1.554665,-1.93826 3.151756,-3.79274 3.549092,-4.12108 1.83122,-1.51323 4.203987,-1.42242 6.472715,0.24772 0.507538,0.37363 1.69642,1.42222 2.64196,2.3302 1.484637,1.42567 7.549357,7.04543 9.690075,8.97913 0.392145,0.35422 0.778577,0.62159 0.858738,0.59415 0.204196,-0.0699 12.927848,-13.22725 12.927848,-13.36852 0,-0.0634 0.61829,-0.65564 1.373977,-1.31604 1.875309,-1.63885 3.135334,-2.25704 4.775931,-2.34315 1.602049,-0.0841 2.547148,0.1931 3.901602,1.14429 0.577514,0.40557 1.651232,1.39351 2.386039,2.19541 8.914117,9.72808 12.257656,13.26678 12.535107,13.26678 0.136417,0 0.467182,-0.25066 0.735032,-0.55702 0.267849,-0.30636 2.557423,-2.72938 5.087942,-5.3845 2.530518,-2.65512 5.06717,-5.36222 5.637005,-6.01579 3.042758,-3.48987 3.844119,-4.34107 4.860936,-5.16328 0.61272,-0.49546 1.54851,-1.10598 2.07953,-1.35671 0.83902,-0.39617 1.13089,-0.45624 2.22807,-0.45859 1.0903,-0.002 1.38008,0.055 2.12374,0.42016 1.13797,0.55878 2.35514,1.70769 3.94191,3.72083 0.71499,0.90711 3.15613,4.00547 5.42474,6.88525 2.26862,2.87978 4.21529,5.23597 4.32593,5.23597 0.11064,0 1.69594,-1.45382 3.52289,-3.2307 7.95111,-7.73322 11.38698,-11.00011 12.04591,-11.45346 0.38784,-0.26684 1.15498,-0.69825 1.70476,-0.95869 0.87986,-0.4168 1.15084,-0.47353 2.26217,-0.47353 1.1523,0 1.3469,0.0446 2.22807,0.51061 1.47473,0.77992 3.5663,2.98644 5.76472,6.08154 2.06655,2.90945 10.39663,13.12283 10.63908,13.0444 0.087,-0.0282 0.70289,-0.99866 1.36863,-2.1567 2.40575,-4.18471 4.73417,-7.66417 6.66546,-9.96047 0.59246,-0.70443 2.20457,-2.51736 3.58249,-4.02873 1.37789,-1.51138 3.0891,-3.45905 3.80264,-4.32816 0.71355,-0.86911 1.4039,-1.62108 1.53412,-1.67105 0.13021,-0.05 0.44933,-0.0909 0.70915,-0.0909 0.41225,0 0.75765,0.28842 2.71272,2.2652 1.23218,1.24587 2.87094,2.96705 3.64171,3.82486 2.66729,2.96852 11.2849,13.13731 11.54473,13.62277 0.39887,0.7453 0.13004,2.00743 -0.5607,2.63256 -0.2741,0.24804 -0.34406,0.25803 -0.51785,0.0739 -0.11051,-0.11708 -1.8925,-2.21814 -3.95994,-4.66902 -7.77782,-9.22029 -12.14031,-13.8883 -12.97931,-13.8883 -0.62035,0 -0.80139,0.15016 -2.1242,1.7619 -0.71331,0.86911 -2.39444,2.78336 -3.73589,4.25389 -1.34143,1.47052 -3.00363,3.3421 -3.69377,4.15906 -1.82231,2.15718 -5.34823,7.53918 -7.32046,11.17402 -0.27601,0.50869 -0.58833,0.95809 -0.69404,0.99865 -0.30024,0.11522 -8.34866,-9.65567 -10.7742,-13.08003 -2.68259,-3.78725 -4.18638,-5.34322 -6.0507,-6.26065 -0.67266,-0.33101 -1.0171,-0.40181 -1.95004,-0.40084 -1.03304,0.001 -1.24286,0.0562 -2.37661,0.62459 -1.60939,0.80681 -2.18429,1.31209 -8.7461,7.68695 -7.42507,7.21352 -8.2389,7.96839 -8.48257,7.86809 -0.11303,-0.0465 -0.60656,-0.60261 -1.09673,-1.23574 -4.87708,-6.29946 -9.68459,-12.31061 -10.48595,-13.11127 -1.69161,-1.69015 -3.41469,-2.30435 -5.18921,-1.84974 -1.99339,0.51068 -3.609428,1.80117 -6.586034,5.25929 -2.39774,2.78562 -12.630623,13.59106 -12.936867,13.66073 -0.196445,0.0447 -6.690615,-6.80727 -11.259894,-11.88025 -3.375826,-3.74796 -4.701013,-4.69128 -6.80145,-4.84157 -2.150147,-0.15384 -4.019522,0.83281 -6.543948,3.45389 -0.867046,0.90024 -3.607573,3.73298 -6.090059,6.29497 -2.482486,2.56198 -5.070627,5.25238 -5.751423,5.97865 -0.698429,0.74508 -1.358257,1.32049 -1.514215,1.32049 -0.152022,0 -1.301051,-0.9525 -2.553401,-2.11666 -1.252349,-1.16417 -3.498863,-3.25298 -4.992254,-4.64182 -5.342595,-4.96853 -5.693361,-5.26754 -6.850756,-5.83996 -1.00086,-0.49501 -1.220352,-0.5469 -2.30234,-0.5443 -1.0162,0.002 -1.307662,0.0635 -1.938697,0.40604 -1.121618,0.60885 -1.435996,0.94114 -4.461525,4.71565 -3.752824,4.68185 -7.768225,9.50781 -7.904803,9.50049 -0.06098,-0.003 -0.285894,-0.10107 -0.499816,-0.21732 z"
         id="path29"
         inkscape:connector-curvature="0" />
      <path
         style="fill:#5c5c5c;stroke-width:0.14853801"
         d="m 14.08672,140.02602 c -0.476697,-0.51436 -0.595148,-1.12656 -0.318954,-1.64847 0.122046,-0.23063 1.585212,-2.05695 3.251482,-4.0585 1.666268,-2.00155 4.301896,-5.22503 5.856952,-7.16328 1.555055,-1.93826 3.152467,-3.79274 3.549803,-4.12108 1.83122,-1.51323 4.203987,-1.42242 6.472715,0.24772 0.507538,0.37363 1.69642,1.42222 2.64196,2.3302 1.484637,1.42567 7.549357,7.04543 9.690075,8.97913 0.392145,0.35422 0.778577,0.62159 0.858738,0.59415 0.204196,-0.0699 12.927848,-13.22725 12.927848,-13.36852 0,-0.0634 0.61829,-0.65564 1.373977,-1.31604 1.875309,-1.63885 3.135334,-2.25704 4.775931,-2.34315 1.602049,-0.0841 2.547148,0.1931 3.901602,1.14429 0.577514,0.40557 1.651232,1.39351 2.386039,2.19541 8.914117,9.72808 12.257656,13.26678 12.535107,13.26678 0.136417,0 0.467182,-0.25066 0.735032,-0.55702 0.267849,-0.30636 2.557423,-2.72938 5.087942,-5.3845 2.530518,-2.65512 5.06717,-5.36222 5.637005,-6.01579 3.042758,-3.48987 3.844119,-4.34107 4.860936,-5.16328 0.61272,-0.49546 1.54851,-1.10598 2.07953,-1.35671 0.83902,-0.39617 1.13089,-0.45624 2.22807,-0.45859 1.0903,-0.002 1.38008,0.055 2.12374,0.42016 1.13797,0.55878 2.35514,1.70769 3.94191,3.72083 0.71499,0.90711 3.15613,4.00547 5.42474,6.88525 2.26862,2.87978 4.21529,5.23597 4.32593,5.23597 0.11064,0 1.69594,-1.45382 3.52289,-3.2307 7.95111,-7.73322 11.38698,-11.00011 12.04591,-11.45346 0.38784,-0.26684 1.15498,-0.69825 1.70476,-0.95869 0.87986,-0.4168 1.15084,-0.47353 2.26217,-0.47353 1.1523,0 1.3469,0.0446 2.22807,0.51061 1.47473,0.77992 3.5663,2.98644 5.76472,6.08154 2.06655,2.90945 10.39663,13.12283 10.63908,13.0444 0.087,-0.0282 0.70289,-0.99866 1.36863,-2.1567 2.40575,-4.18471 4.73417,-7.66417 6.66546,-9.96047 0.59246,-0.70443 2.20457,-2.51736 3.58249,-4.02873 1.37789,-1.51138 3.0891,-3.45905 3.80264,-4.32816 0.71355,-0.86911 1.4039,-1.62108 1.53412,-1.67105 0.13021,-0.05 0.44933,-0.0909 0.70915,-0.0909 0.41225,0 0.75765,0.28842 2.71272,2.2652 1.23218,1.24587 2.87094,2.96705 3.64171,3.82486 2.66729,2.96852 11.2849,13.13731 11.54473,13.62277 0.28819,0.5385 0.2086,1.5778 -0.16282,2.12597 -0.18381,0.2713 -0.40905,0.5178 -0.50055,0.54779 -0.0915,0.03 -2.1065,-2.23749 -4.4778,-5.03884 -5.43464,-6.42026 -7.6346,-8.88523 -10.29077,-11.53039 -2.89409,-2.88208 -2.75481,-2.88925 -5.35813,0.27589 -0.7041,0.85605 -2.1412,2.4929 -3.19356,3.63744 -2.22882,2.42403 -4.17596,4.67715 -5.13785,5.94522 -1.37314,1.81023 -4.6314,6.99159 -5.90474,9.38988 -0.2711,0.5106 -0.53793,0.92836 -0.59295,0.92836 -0.17214,0 -0.75574,-0.68081 -4.83858,-5.64444 -2.18397,-2.65512 -4.75718,-5.93038 -5.71825,-7.27837 -2.83659,-3.97857 -4.14258,-5.33858 -6.08653,-6.33833 -0.70806,-0.36414 -0.98525,-0.42015 -2.07953,-0.42015 -1.05641,0 -1.40005,0.0644 -2.10454,0.39471 -1.53715,0.72061 -2.6967,1.64255 -5.47136,4.35018 -8.85377,8.63986 -11.74793,11.38984 -11.9409,11.34603 -0.19855,-0.0451 -2.50696,-2.91596 -8.39026,-10.43463 -2.75141,-3.5162 -3.87306,-4.67101 -5.14524,-5.2973 -3.08056,-1.51656 -5.68613,-0.18612 -10.418737,5.31996 -2.237755,2.60348 -12.234193,13.11111 -12.473259,13.11111 -0.196287,0 -4.973831,-5.0181 -9.121421,-9.5807 -5.611716,-6.17323 -6.590755,-6.93365 -9.053483,-7.03191 -2.272694,-0.0907 -3.909748,0.784 -6.537142,3.49276 -0.857917,0.88449 -4.161809,4.29855 -7.341982,7.58681 -3.180173,3.28826 -5.845831,5.97866 -5.923681,5.97866 -0.07785,0 -1.018433,-0.82116 -2.090183,-1.8248 -1.071749,-1.00363 -3.151792,-2.9226 -4.622319,-4.26437 -1.470526,-1.34177 -3.375526,-3.11403 -4.233333,-3.93837 -0.857807,-0.82433 -1.892245,-1.72633 -2.298751,-2.00444 -2.386117,-1.63244 -4.742675,-1.59778 -6.619149,0.0974 -0.34792,0.3143 -1.781225,2.00855 -3.185125,3.76502 -3.204601,4.00937 -6.789103,8.36843 -7.481343,9.09795 -0.625261,0.65893 -0.810361,0.68402 -1.283092,0.17393 z"
         id="path27"
         inkscape:connector-curvature="0" />
      <path
         style="fill:#5d3131;stroke-width:0.14853801"
         d="m 14.234949,139.92075 c -0.545035,-0.54503 -0.638759,-0.94385 -0.350049,-1.48954 0.09441,-0.17844 1.41796,-1.82839 2.941219,-3.66655 3.260256,-3.93424 6.947291,-8.47233 7.904652,-9.72924 1.597952,-2.09793 2.915955,-2.94352 4.575497,-2.93549 1.902555,0.009 3.247043,0.79952 6.212982,3.65211 0.955499,0.91898 3.005809,2.83816 4.556248,4.26485 1.550436,1.42668 3.48172,3.21226 4.29174,3.96795 0.810019,0.75568 1.551664,1.37397 1.648097,1.37397 0.09643,0 2.773217,-2.69039 5.948406,-5.97865 9.089009,-9.41268 9.455381,-9.76597 10.832858,-10.44626 1.064543,-0.52574 1.311315,-0.58754 2.525147,-0.6323 2.445051,-0.0902 3.754766,0.71868 7.006137,4.3269 4.788552,5.31411 11.389763,12.2847 11.633718,12.2847 0.143226,0 1.156595,-0.95033 2.251934,-2.11184 1.095339,-1.16151 3.474429,-3.66721 5.286869,-5.56823 1.812439,-1.90103 4.109048,-4.39733 5.103575,-5.54735 0.994527,-1.15002 2.185306,-2.46224 2.646177,-2.91605 3.844524,-3.78556 7.046714,-3.8134 10.213274,-0.0888 0.48059,0.56529 3.07958,3.84405 5.77555,7.28615 3.4358,4.38669 4.98915,6.26046 5.19397,6.26538 0.18511,0.004 1.32849,-1.01552 3.1193,-2.78265 5.48764,-5.41503 11.45211,-11.12027 12.2614,-11.72848 0.45051,-0.33857 1.28603,-0.83668 1.85672,-1.1069 0.92138,-0.43628 1.17905,-0.49129 2.30019,-0.49102 1.15715,2.9e-4 1.34147,0.043 2.2075,0.51227 1.39676,0.75679 2.89876,2.2543 4.63786,4.624 0.85087,1.1594 1.95218,2.65552 2.44734,3.32471 1.61711,2.18539 9.13265,11.22001 9.33351,11.22001 0.10769,0 0.81483,-1.08619 1.57144,-2.41374 1.43864,-2.52426 3.90532,-6.36292 5.25703,-8.18105 0.90009,-1.21065 2.51283,-3.06824 5.37596,-6.19215 1.08678,-1.18576 2.48589,-2.78998 3.10912,-3.56491 1.41526,-1.75971 1.61409,-1.92802 2.28284,-1.93238 0.50429,-0.003 0.70045,0.15975 2.92281,2.42927 1.31024,1.33805 3.28795,3.46187 4.3949,4.71962 2.78271,3.16175 10.32884,12.09042 10.51967,12.44697 0.22331,0.41726 0.19315,1.44375 -0.0566,1.92674 -0.50773,0.98187 -0.3372,1.13069 -4.95288,-4.32209 -5.43277,-6.41802 -7.63294,-8.88321 -10.2889,-11.52816 -2.89409,-2.88208 -2.75481,-2.88925 -5.35813,0.27589 -0.7041,0.85605 -2.1412,2.4929 -3.19356,3.63744 -2.22882,2.42403 -4.17596,4.67715 -5.13785,5.94522 -1.37314,1.81023 -4.6314,6.99159 -5.90474,9.38988 -0.2711,0.5106 -0.53793,0.92836 -0.59295,0.92836 -0.17214,0 -0.75574,-0.68081 -4.83858,-5.64444 -2.18397,-2.65512 -4.75718,-5.93038 -5.71825,-7.27837 -2.83659,-3.97857 -4.14258,-5.33858 -6.08653,-6.33833 -0.70806,-0.36414 -0.98525,-0.42015 -2.07953,-0.42015 -1.05641,0 -1.40005,0.0644 -2.10454,0.39471 -1.53715,0.72061 -2.6967,1.64255 -5.47136,4.35018 -8.85377,8.63986 -11.74793,11.38984 -11.9409,11.34603 -0.19855,-0.0451 -2.50696,-2.91596 -8.39026,-10.43463 -2.75141,-3.5162 -3.87306,-4.67101 -5.14524,-5.2973 -3.08056,-1.51656 -5.68613,-0.18612 -10.418737,5.31996 -2.237755,2.60348 -12.234193,13.11111 -12.473259,13.11111 -0.196287,0 -4.973831,-5.0181 -9.121421,-9.5807 -5.611716,-6.17323 -6.590755,-6.93365 -9.053483,-7.03191 -2.272694,-0.0907 -3.909748,0.784 -6.537142,3.49276 -0.857917,0.88449 -4.161809,4.29855 -7.341982,7.58681 -3.180173,3.28826 -5.845831,5.97866 -5.923681,5.97866 -0.07785,0 -1.018433,-0.82116 -2.090183,-1.8248 -1.071749,-1.00363 -3.151792,-2.9226 -4.622319,-4.26437 -1.470526,-1.34177 -3.375526,-3.11403 -4.233333,-3.93837 -2.549866,-2.45037 -3.866062,-3.18257 -5.732124,-3.18882 -0.874119,-0.003 -1.202418,0.0711 -1.930994,0.43562 -1.133029,0.56682 -1.691077,1.15755 -4.987409,5.27957 -3.19318,3.99302 -6.947942,8.52797 -7.300583,8.81755 -0.215214,0.17672 -0.312481,0.13628 -0.768121,-0.31936 z"
         id="path25"
         inkscape:connector-curvature="0" />
      <path
         style="fill:#1f1e1e;stroke-width:0.14853801"
         d="m 14.226375,139.89597 c -0.26016,-0.26015 -0.364027,-0.52607 -0.362614,-0.92836 0.0018,-0.5099 0.233075,-0.8405 2.420766,-3.46026 2.601529,-3.11532 7.159694,-8.70907 8.699058,-10.67541 1.506229,-1.92403 2.786202,-2.69653 4.456229,-2.68948 1.655164,0.007 3.059179,0.8332 5.663237,3.33262 0.939687,0.90193 3.342928,3.14382 5.340539,4.98198 6.030836,5.54945 5.490393,5.09588 5.807533,4.87394 0.15325,-0.10725 2.726845,-2.73499 5.7191,-5.83944 9.105434,-9.44682 9.267387,-9.60723 10.314953,-10.21656 1.358714,-0.79031 2.340485,-1.04898 3.660045,-0.96429 2.22042,0.1425 3.321426,1.00468 8.302869,6.50191 1.798851,1.9851 5.76317,6.24929 9.010514,9.6921 0.288966,0.30636 0.594874,0.55702 0.679795,0.55702 0.305558,0 10.307493,-10.52421 13.088609,-13.77206 2.037331,-2.37924 3.300462,-3.57137 4.650902,-4.38946 1.15648,-0.7006 1.86334,-0.90849 3.08914,-0.90855 1.80512,-9e-5 3.38382,1.09066 5.56499,3.84492 0.58227,0.73527 3.02485,3.83423 5.42795,6.8866 2.4031,3.05236 4.45919,5.58425 4.56909,5.62642 0.11565,0.0444 0.77501,-0.48023 1.56538,-1.2455 0.75107,-0.7272 4.02444,-3.90781 7.27418,-7.06802 4.42615,-4.30422 6.23666,-5.96526 7.21616,-6.62043 2.92645,-1.95748 5.05062,-1.75663 7.66264,0.72454 1.31408,1.24824 1.97498,2.05757 4.11446,5.0385 1.5731,2.1918 9.7317,12.24285 10.22549,12.59738 0.35401,0.25416 0.36888,0.23584 1.65288,-2.03598 1.36388,-2.41318 3.36723,-5.60616 4.64856,-7.40899 1.32801,-1.86849 2.51377,-3.2814 5.507,-6.56191 1.34188,-1.47067 3.0737,-3.4354 3.84849,-4.36607 1.42077,-1.70661 1.6256,-1.8794 2.22794,-1.8794 0.37711,0 4.23652,3.84021 7.09085,7.05555 2.26899,2.55598 10.04576,11.74636 10.48128,12.38652 0.18841,0.27691 0.34255,0.72583 0.34255,0.99759 0,0.59225 -0.42506,1.54396 -0.68956,1.54396 -0.10392,0 -1.33665,-1.35355 -2.73941,-3.00789 -5.50387,-6.49098 -6.66841,-7.84014 -8.62219,-9.98918 -1.11409,-1.22544 -2.79177,-2.98005 -3.72817,-3.89913 -1.55307,-1.52434 -1.75104,-1.67105 -2.255,-1.67105 -0.30385,0 -0.67955,0.068 -0.83487,0.15114 -0.15533,0.0831 -0.9084,0.90195 -1.67349,1.81959 -0.76509,0.91765 -2.51693,2.90503 -3.89299,4.41641 -3.35531,3.68528 -4.60477,5.20802 -6.1549,7.50116 -1.28723,1.90424 -3.89117,6.16074 -4.61351,7.54144 -0.20393,0.38978 -0.44787,0.69057 -0.54211,0.66843 -0.23801,-0.056 -7.99513,-9.49487 -9.3716,-11.40343 -3.68242,-5.10595 -5.1405,-6.69828 -6.9486,-7.58841 -1.28519,-0.63269 -2.59696,-0.74842 -3.88739,-0.34296 -1.77086,0.55641 -3.12259,1.67521 -9.37214,7.75715 -7.91414,7.70188 -8.42797,8.19527 -8.53478,8.19527 -0.0507,0 -2.3842,-2.92434 -5.18548,-6.49854 -2.80127,-3.57419 -5.63137,-7.03805 -6.2891,-7.69746 -1.4406,-1.44426 -2.48907,-2.00453 -3.9472,-2.10924 -2.49668,-0.1793 -4.64986,1.23445 -8.249393,5.41644 -1.568161,1.82191 -11.420417,12.31447 -12.455891,13.26541 l -0.404357,0.37134 -0.753003,-0.81696 c -0.414153,-0.44932 -2.096014,-2.25406 -3.737471,-4.01052 -1.641456,-1.75646 -3.752667,-4.03461 -4.691579,-5.06255 -0.938912,-1.02794 -2.329901,-2.54843 -3.091087,-3.37887 -2.346912,-2.56043 -3.992748,-3.49863 -6.117195,-3.48705 -2.19314,0.0119 -3.820438,0.96438 -6.609942,3.86868 -1.062047,1.10576 -4.00501,4.15696 -6.539917,6.78045 -2.534906,2.62349 -4.983129,5.16657 -5.440493,5.6513 l -0.831572,0.88131 -0.586976,-0.50997 c -1.019176,-0.88547 -7.907261,-7.26489 -9.896289,-9.16547 -2.932151,-2.80178 -4.345804,-3.63213 -6.18955,-3.63559 -2.18549,-0.004 -2.95433,0.59862 -6.648006,5.21157 -4.043636,5.05 -7.774492,9.5304 -7.936036,9.5304 -0.0741,0 -0.298792,-0.16407 -0.499318,-0.3646 z"
         id="path23"
         inkscape:connector-curvature="0" />
    </g>
  </g>
</svg>
