<?xml version="1.0" encoding="UTF-8" standalone="no"?>
<svg
   viewBox="0 0 602.6441 602.6441"
   version="1.1"
   id="svg1"
   sodipodi:docname="linkedin.svg"
   width="602.6441"
   height="602.6441"
   inkscape:version="1.3.1 (9b9bdc1480, 2023-11-25, custom)"
   xmlns:inkscape="http://www.inkscape.org/namespaces/inkscape"
   xmlns:sodipodi="http://sodipodi.sourceforge.net/DTD/sodipodi-0.dtd"
   xmlns="http://www.w3.org/2000/svg"
   xmlns:svg="http://www.w3.org/2000/svg">
  <defs
     id="defs1" />
  <sodipodi:namedview
     id="namedview1"
     pagecolor="#ffffff"
     bordercolor="#000000"
     borderopacity="0.25"
     inkscape:showpageshadow="2"
     inkscape:pageopacity="0.0"
     inkscape:pagecheckerboard="0"
     inkscape:deskcolor="#d1d1d1"
     showgrid="false"
     inkscape:zoom="0.4250249"
     inkscape:cx="189.40067"
     inkscape:cy="378.80133"
     inkscape:window-width="1366"
     inkscape:window-height="704"
     inkscape:window-x="0"
     inkscape:window-y="27"
     inkscape:window-maximized="1"
     inkscape:current-layer="svg1" />
  <circle
     style="fill:#000000;stroke:#ffffff;stroke-opacity:0.686407"
     id="path2"
     cx="301.32205"
     cy="301.32205"
     r="300.82205" />
  <circle
     style="fill:#f9f9f9;stroke:#ffffff;stroke-width:0.759278;stroke-opacity:0.686407"
     id="circle2"
     cx="301.32205"
     cy="301.32205"
     r="228.40775" />
  <path
     d="m 301.03786,63.457078 c 32.96576,0 63.84748,6.252126 92.64514,18.756378 28.79767,12.504252 53.99564,29.460764 75.59389,50.869564 21.59826,21.40879 38.64951,46.51202 51.15376,75.30969 12.50425,28.79767 18.75638,59.67938 18.75638,92.64514 0,32.96576 -6.25213,63.84747 -18.75638,92.64515 -12.50425,28.79766 -29.5555,53.99564 -51.15376,75.59389 -21.59825,21.59826 -46.79622,38.64951 -75.59389,51.15376 -28.79766,12.50425 -59.67938,18.75638 -92.64514,18.75638 -32.96575,0 -63.84747,-6.25213 -92.64514,-18.75638 -28.79766,-12.50425 -53.90091,-29.5555 -75.3097,-51.15376 C 111.67422,447.67864 94.717703,422.48066 82.213451,393.683 69.709198,364.88534 63.457072,334.00361 63.457072,301.03785 c 0,-32.96576 6.252126,-63.84747 18.756379,-92.64514 12.504252,-28.79767 29.460769,-53.9009 50.869569,-75.30969 21.40879,-21.4088 46.51204,-38.365312 75.3097,-50.869564 28.79767,-12.504252 59.67939,-18.756378 92.64514,-18.756378 z M 227.1491,241.92684 h -59.67938 v 193.24755 h 59.67938 z m -30.12388,-15.34613 c 8.33616,0 15.44085,-2.84187 21.31407,-8.52562 5.87321,-5.68375 8.80981,-12.69372 8.80981,-21.02988 0,-8.33617 -2.9366,-15.34613 -8.80981,-21.02987 -5.87322,-5.68375 -12.97791,-8.52563 -21.31407,-8.52563 -8.33616,0 -15.34613,2.84188 -21.02988,8.52563 -5.68375,5.68374 -8.52562,12.6937 -8.52562,21.02987 0,8.33616 2.84187,15.34613 8.52562,21.02988 5.68375,5.68375 12.69372,8.52562 21.02988,8.52562 z m 238.14917,96.62377 c 0,-13.641 -3.78917,-26.99782 -11.36751,-40.07044 -7.57833,-13.07263 -17.43016,-23.0192 -29.5555,-29.8397 -10.98859,-6.06266 -23.77703,-9.28346 -38.36532,-9.66237 -14.58829,-0.37892 -27.94511,2.08403 -40.07044,7.38887 v -9.094 H 256.7046 v 193.24755 h 59.11102 V 316.95235 c 13.85495,-9.02723 20.44197,-11.40573 25.0085,-11.93587 3.36653,-0.39084 7.10469,-2.2735 12.22006,-2.2735 5.11538,0 9.18873,0.94728 12.22007,2.84187 2.2735,1.13675 4.547,3.59971 6.8205,7.38888 2.2735,3.78916 3.41025,7.19941 3.41025,10.23075 v 111.96991 h 59.67939 z"
     id="path1"
     sodipodi:nodetypes="ssssssssssssssssscccccssssssssssscsccccccsscssccs"
     style="stroke-width:1.13675" />
</svg>
